<svg xmlns="http://www.w3.org/2000/svg" viewBox="0 0 32.45 23.13"><defs><style>.cls-1{fill-rule:evenodd;}</style></defs><title>Asset 1</title><g id="Layer_2" data-name="Layer 2"><g id="PROFONDIT__5MM"><path class="cls-1" d="M12.74,23.09a10.48,10.48,0,0,1-1.12,0A11.57,11.57,0,1,1,11.62,0a8.4,8.4,0,0,1,1.12.05V3.53a8.4,8.4,0,0,0-1.12,0,8.09,8.09,0,1,0,0,16.17,4.67,4.67,0,0,0,1.12,0Z"/><path class="cls-1" d="M32.45,23.09a11.73,11.73,0,0,1-1.18,0A11.57,11.57,0,1,1,31.27,0a9.4,9.4,0,0,1,1.18.05V3.53a9.4,9.4,0,0,0-1.18,0,8.08,8.08,0,0,0-7.89,6.37h6.76v3.43H23.38a8.07,8.07,0,0,0,7.89,6.37,5.2,5.2,0,0,0,1.18,0Z"/></g></g></svg>