<svg width="700" height="400" xmlns="http://www.w3.org/2000/svg">
 <defs>
  <style>.f262cf48-6c66-47d8-89a5-d77a6efe6931{fill:#1d1d1b;}.a15926d9-f86a-4c91-8ae7-2379824d769d{fill:none;stroke:#000;stroke-linecap:round;stroke-linejoin:round;stroke-width:1.5px;}</style>
 </defs>
 <title>Risorsa 10</title>
 <g>
  <title>background</title>
  <rect x="-1" y="-1" width="702" height="402" id="canvas_background" fill="none"/>
 </g>
 <g>
  <title>Layer 1</title>
  <g id="db52a822-9e80-405f-8197-9a583d635e78" stroke="null">
   <g id="9ef6f0ac-06e0-4ef2-bbc3-b001b9c26a29" stroke="null">
    <path class="f262cf48-6c66-47d8-89a5-d77a6efe6931" d="m439.347808,66.15822a18.841641,18.841641 0 0 1 -0.726886,5.336871a16.335798,16.335798 0 0 1 -2.065885,4.399571a15.436755,15.436755 0 0 1 -3.194471,3.404885a19.128569,19.128569 0 0 1 -4.227414,2.467585a23.604654,23.604654 0 0 1 -5.030814,1.492028a32.690725,32.690725 0 0 1 -6.140271,0.497343l-16.029741,0a3.443142,3.443142 0 0 1 -2.065885,-0.726886a3.060571,3.060571 0 0 1 -0.975557,-2.582357l0,-54.726837a3.0797,3.0797 0 0 1 1.052071,-2.601485a3.443142,3.443142 0 0 1 2.065885,-0.726886l13.944727,0a31.868196,31.868196 0 0 1 9.009556,1.052071a16.010612,16.010612 0 0 1 5.853342,3.022314a12.758756,12.758756 0 0 1 3.538785,4.896914a17.215712,17.215712 0 0 1 1.166843,6.541971a16.488827,16.488827 0 0 1 -0.516471,4.170028a14.920284,14.920284 0 0 1 -1.549414,3.672685a12.816141,12.816141 0 0 1 -2.563228,3.022314a13.753441,13.753441 0 0 1 -3.538785,2.180657a14.499456,14.499456 0 0 1 4.705628,1.721571a14.939413,14.939413 0 0 1 3.825714,3.194471a15.532398,15.532398 0 0 1 2.563228,4.552599a16.278412,16.278412 0 0 1 0.899043,5.738571l0,0.000002zm-12.204027,-27.449497a12.682241,12.682241 0 0 0 -0.612114,-4.036128a7.441013,7.441013 0 0 0 -1.912857,-3.060571a8.780013,8.780013 0 0 0 -3.443142,-1.912857a19.511141,19.511141 0 0 0 -5.642928,-0.6695l-8.41657,0l0,19.874583l9.277356,0a13.198713,13.198713 0 0 0 5.107328,-0.822528a8.971299,8.971299 0 0 0 3.2136,-2.238043a8.703499,8.703499 0 0 0 1.912857,-3.270985a12.548341,12.548341 0 0 0 0.516471,-3.863971l-0.000001,0zm3.691814,27.927711a12.280541,12.280541 0 0 0 -0.879914,-4.839528a8.95217,8.95217 0 0 0 -2.5441,-3.500528a11.477142,11.477142 0 0 0 -4.208285,-2.161528a23.164697,23.164697 0 0 0 -6.369814,-0.726886l-9.75557,0l0,21.557898l11.840584,0a15.666298,15.666298 0 0 0 4.877785,-0.6695a10.998927,10.998927 0 0 0 3.653557,-1.912857a8.913913,8.913913 0 0 0 2.486714,-3.251857a10.520713,10.520713 0 0 0 0.899043,-4.495214z" id="svg_1" stroke="null"/>
    <g id="650d7da4-5dea-4aa3-8db5-689b0e7460cd" stroke="null">
     <line class="a15926d9-f86a-4c91-8ae7-2379824d769d" x1="427.124652" y1="165.703295" x2="435.732508" y2="157.095439" id="svg_2" stroke="null"/>
    </g>
    <g id="b28464e7-c072-4bb6-b38e-49ff8bdb1b8a" stroke="null">
     <path class="a15926d9-f86a-4c91-8ae7-2379824d769d" d="m435.732508,157.095439a11.993613,11.993613 0 0 1 16.909655,0" id="svg_3" stroke="null"/>
    </g>
    <g id="2303a5d9-25d9-4c50-9cbe-cccf5eaef0c1" stroke="null">
     <line class="a15926d9-f86a-4c91-8ae7-2379824d769d" x1="452.642163" y1="157.095439" x2="456.735677" y2="161.188953" id="svg_4" stroke="null"/>
    </g>
    <g id="73362e1d-9989-4309-a81d-b214893afc8d" stroke="null">
     <path class="a15926d9-f86a-4c91-8ae7-2379824d769d" d="m456.735677,161.131567a12.012742,12.012742 0 0 1 0,16.928784" id="svg_5" stroke="null"/>
    </g>
    <g id="bb1b30f9-ee24-4bc2-8bc3-64322e6ea675" stroke="null">
     <line class="a15926d9-f86a-4c91-8ae7-2379824d769d" x1="456.735677" y1="178.175122" x2="448.127821" y2="186.782978" id="svg_6" stroke="null"/>
    </g>
    <g id="cbd24eab-4f74-448a-8ef0-d0cbc32a18b0" stroke="null">
     <path class="a15926d9-f86a-4c91-8ae7-2379824d769d" d="m448.127821,202.564048a11.113699,11.113699 0 0 1 0,-15.78107" id="svg_7" stroke="null"/>
    </g>
    <g id="4e9c4a12-dad9-43b0-ae86-0224c0eb1046" stroke="null">
     <line class="a15926d9-f86a-4c91-8ae7-2379824d769d" x1="448.127821" y1="202.564048" x2="456.735677" y2="211.152776" id="svg_8" stroke="null"/>
    </g>
    <g id="4f46a001-ad95-4eb7-b6fa-462fe7a318ac" stroke="null">
     <path class="a15926d9-f86a-4c91-8ae7-2379824d769d" d="m456.735677,211.152776a12.012742,12.012742 0 0 1 0,16.928784" id="svg_9" stroke="null"/>
    </g>
    <g id="7aeb31f7-4e2f-4f87-9223-e505a270fc33" stroke="null">
     <line class="a15926d9-f86a-4c91-8ae7-2379824d769d" x1="456.735677" y1="228.081559" x2="452.642163" y2="232.232459" id="svg_10" stroke="null"/>
    </g>
    <g id="06127eee-8d10-4469-8188-2a65ae3c11b6" stroke="null">
     <path class="a15926d9-f86a-4c91-8ae7-2379824d769d" d="m452.737806,232.232459a11.955356,11.955356 0 0 1 -16.909655,0" id="svg_11" stroke="null"/>
    </g>
    <g id="527d469d-f0c8-43bd-9994-535d12aa1f33" stroke="null">
     <line class="a15926d9-f86a-4c91-8ae7-2379824d769d" x1="435.732508" y1="232.232459" x2="427.124652" y2="223.643731" id="svg_12" stroke="null"/>
    </g>
    <g id="caef875b-cc4b-4ba6-9309-d9c1ec8221c7" stroke="null">
     <path class="a15926d9-f86a-4c91-8ae7-2379824d769d" d="m411.286197,223.643731a11.09457,11.09457 0 0 1 15.761941,0" id="svg_13" stroke="null"/>
    </g>
    <g id="ad470ff4-0c18-4acc-9508-49d93ceed964" stroke="null">
     <line class="a15926d9-f86a-4c91-8ae7-2379824d769d" x1="411.286197" y1="223.643731" x2="402.67834" y2="232.232459" id="svg_14" stroke="null"/>
    </g>
    <g id="43009f2e-a72f-4941-8f0a-bf30c0eead29" stroke="null">
     <path class="a15926d9-f86a-4c91-8ae7-2379824d769d" d="m402.67834,232.232459a11.974484,11.974484 0 0 1 -16.928784,0" id="svg_15" stroke="null"/>
    </g>
    <g id="dcbc0557-39f2-47a6-bd62-f309d8299036" stroke="null">
     <line class="a15926d9-f86a-4c91-8ae7-2379824d769d" x1="385.749557" y1="232.232459" x2="381.675171" y2="228.081559" id="svg_16" stroke="null"/>
    </g>
    <g id="ad509d76-f7ef-4a50-816a-d462e3a1319f" stroke="null">
     <path class="a15926d9-f86a-4c91-8ae7-2379824d769d" d="m381.675171,228.081559a11.974484,11.974484 0 0 1 0,-16.928784" id="svg_17" stroke="null"/>
    </g>
    <g id="6b208939-f9ea-4ca5-9e94-6340d9062fc7" stroke="null">
     <line class="a15926d9-f86a-4c91-8ae7-2379824d769d" x1="381.675171" y1="211.152776" x2="390.263899" y2="202.564048" id="svg_18" stroke="null"/>
    </g>
    <g id="73cdfd88-07e5-4cfc-a5be-0c6386278b8c" stroke="null">
     <path class="a15926d9-f86a-4c91-8ae7-2379824d769d" d="m390.263899,186.782978a11.113699,11.113699 0 0 1 0,15.78107" id="svg_19" stroke="null"/>
    </g>
    <g id="81d096d5-b8bc-4842-8f99-c7e075f800e4" stroke="null">
     <line class="a15926d9-f86a-4c91-8ae7-2379824d769d" x1="390.263899" y1="186.782978" x2="381.675171" y2="178.175122" id="svg_20" stroke="null"/>
    </g>
    <g id="12acfaef-2882-404d-a76c-459166fd8a2f" stroke="null">
     <path class="a15926d9-f86a-4c91-8ae7-2379824d769d" d="m381.675171,178.175122a11.955356,11.955356 0 0 1 0,-16.909655" id="svg_21" stroke="null"/>
    </g>
    <g id="a3ec0329-8593-483f-ab35-7bafedd17991" stroke="null">
     <line class="a15926d9-f86a-4c91-8ae7-2379824d769d" x1="381.675171" y1="161.188953" x2="385.749557" y2="157.095439" id="svg_22" stroke="null"/>
    </g>
    <g id="4bec158c-f7fe-4f50-b22c-0079c20832b6" stroke="null">
     <path class="a15926d9-f86a-4c91-8ae7-2379824d769d" d="m385.787814,157.095439a12.012742,12.012742 0 0 1 16.928784,0" id="svg_23" stroke="null"/>
    </g>
    <g id="4820f11f-d8a0-4c8e-b9c0-983de01808c0" stroke="null">
     <line class="a15926d9-f86a-4c91-8ae7-2379824d769d" x1="402.67834" y1="157.095439" x2="411.286197" y2="165.703295" id="svg_24" stroke="null"/>
    </g>
    <g id="8b17734a-f88b-439b-97f3-3565a064c4cc" stroke="null">
     <path class="a15926d9-f86a-4c91-8ae7-2379824d769d" d="m427.124652,165.703295a11.113699,11.113699 0 0 1 -15.78107,0" id="svg_25" stroke="null"/>
    </g>
    <path class="a15926d9-f86a-4c91-8ae7-2379824d769d" d="m411.783539,372.770057a11.840584,11.840584 0 0 1 14.767255,0" id="svg_26" stroke="null"/>
    <g id="f5a23484-d900-413b-9374-dd4a01eaad06" stroke="null">
     <path class="a15926d9-f86a-4c91-8ae7-2379824d769d" d="m411.783539,372.770057a20.716241,20.716241 0 0 1 -29.113682,-29.113682" id="svg_27" stroke="null"/>
    </g>
    <g id="1862954f-fc3b-4ba0-a840-61e03cc79197" stroke="null">
     <path class="a15926d9-f86a-4c91-8ae7-2379824d769d" d="m382.593343,328.88912a11.840584,11.840584 0 0 1 0,14.767255" id="svg_28" stroke="null"/>
    </g>
    <g id="28f90137-3a26-4ffc-830b-40d42911b987" stroke="null">
     <path class="a15926d9-f86a-4c91-8ae7-2379824d769d" d="m382.593343,328.88912a20.716241,20.716241 0 0 1 29.113682,-29.113682" id="svg_29" stroke="null"/>
    </g>
    <g id="b53ab193-7e7d-47ed-acaa-1db48b1b13b7" stroke="null">
     <path class="a15926d9-f86a-4c91-8ae7-2379824d769d" d="m426.474281,299.775437a11.840584,11.840584 0 0 1 -14.767255,0" id="svg_30" stroke="null"/>
    </g>
    <g id="7a4daac6-9ab1-476e-860c-444ca5b4eece" stroke="null">
     <path class="a15926d9-f86a-4c91-8ae7-2379824d769d" d="m426.474281,299.775437a20.716241,20.716241 0 0 1 29.113682,29.113682" id="svg_31" stroke="null"/>
    </g>
    <g id="bcddf594-5f44-4d67-b8c9-b27615582d47" stroke="null">
     <path class="a15926d9-f86a-4c91-8ae7-2379824d769d" d="m455.664477,343.656375a11.840584,11.840584 0 0 1 0,-14.767255" id="svg_32" stroke="null"/>
    </g>
    <g id="38e938b9-4eaf-454b-a48d-49c227d590b5" stroke="null">
     <path class="a15926d9-f86a-4c91-8ae7-2379824d769d" d="m455.664477,343.656375a20.716241,20.716241 0 0 1 -29.113682,29.113682" id="svg_33" stroke="null"/>
    </g>
    <path class="f262cf48-6c66-47d8-89a5-d77a6efe6931" d="m587.173391,52.366522a47.821423,47.821423 0 0 1 -1.759828,13.389998a28.08074,28.08074 0 0 1 -5.222099,10.15727a22.954283,22.954283 0 0 1 -8.760885,6.465456a31.198697,31.198697 0 0 1 -12.280541,2.238043a31.562139,31.562139 0 0 1 -11.974484,-2.065885a20.907526,20.907526 0 0 1 -8.359185,-5.948985a25.574897,25.574897 0 0 1 -4.916042,-9.774699a50.614194,50.614194 0 0 1 -1.6068,-13.389998a45.908566,45.908566 0 0 1 1.759828,-13.198713a27.353854,27.353854 0 0 1 5.260357,-10.080756a23.26034,23.26034 0 0 1 8.760885,-6.388942a30.911768,30.911768 0 0 1 12.29967,-2.2763a31.389982,31.389982 0 0 1 11.821456,2.046757a21.366612,21.366612 0 0 1 8.378313,5.948985a25.421869,25.421869 0 0 1 4.973428,9.659927a48.643952,48.643952 0 0 1 1.625928,13.217841l-0.000001,0.000001zm-8.626985,0.573857a48.26138,48.26138 0 0 0 -0.918171,-9.698185a22.72474,22.72474 0 0 0 -3.0797,-7.785328a14.97767,14.97767 0 0 0 -5.738571,-5.145585a19.492012,19.492012 0 0 0 -8.894785,-1.912857a18.076498,18.076498 0 0 0 -8.913913,2.0085a16.622727,16.622727 0 0 0 -5.853342,5.298614a21.978726,21.978726 0 0 0 -3.2136,7.766199a43.192309,43.192309 0 0 0 -0.975557,9.315613a51.819294,51.819294 0 0 0 0.899043,9.946856a21.92134,21.92134 0 0 0 3.041443,7.861842a14.289041,14.289041 0 0 0 5.738571,5.107328a19.549398,19.549398 0 0 0 8.971299,1.912857a18.669484,18.669484 0 0 0 9.009556,-1.912857a16.259284,16.259284 0 0 0 5.872471,-5.394257a22.820383,22.820383 0 0 0 3.156214,-7.842713a45.296452,45.296452 0 0 0 0.899043,-9.526028l-0.000001,0.000001z" id="svg_34" stroke="null"/>
    <g id="3dde207c-78f2-44d9-812e-3042caae183d" stroke="null">
     <path class="a15926d9-f86a-4c91-8ae7-2379824d769d" d="m542.450796,235.82863a14.480327,14.480327 0 0 1 -13.753441,-9.965985" id="svg_35" stroke="null"/>
    </g>
    <g id="488fdb0c-4f31-4dc7-aedd-144c7f118611" stroke="null">
     <line class="a15926d9-f86a-4c91-8ae7-2379824d769d" x1="528.697355" y1="225.786131" x2="518.004485" y2="192.942378" id="svg_36" stroke="null"/>
    </g>
    <g id="b746d9d7-fcce-429f-990c-4ddc0eb69dfe" stroke="null">
     <path class="a15926d9-f86a-4c91-8ae7-2379824d769d" d="m518.004485,192.942378a14.480327,14.480327 0 0 1 5.241228,-16.125384" id="svg_37" stroke="null"/>
    </g>
    <g id="79aba11d-555c-4d84-8a6f-4936983fd230" stroke="null">
     <line class="a15926d9-f86a-4c91-8ae7-2379824d769d" x1="523.322227" y1="176.740479" x2="551.269067" y2="156.464196" id="svg_38" stroke="null"/>
    </g>
    <g id="6debf6df-3183-4dfe-88dc-2fd7a949455b" stroke="null">
     <path class="a15926d9-f86a-4c91-8ae7-2379824d769d" d="m551.269067,156.464196a14.556841,14.556841 0 0 1 17.005298,0" id="svg_39" stroke="null"/>
    </g>
    <g id="1d713090-b98c-4ffe-ad04-bd284c452148" stroke="null">
     <line class="a15926d9-f86a-4c91-8ae7-2379824d769d" x1="568.274365" y1="156.464196" x2="596.221204" y2="176.740479" id="svg_40" stroke="null"/>
    </g>
    <g id="eeab15f0-ec49-46e2-b830-211723d66102" stroke="null">
     <path class="a15926d9-f86a-4c91-8ae7-2379824d769d" d="m596.202076,176.740479a14.365556,14.365556 0 0 1 5.241228,16.144512" id="svg_41" stroke="null"/>
    </g>
    <g id="ed3c914e-822e-418f-80a2-9b5ee1d8d98d" stroke="null">
     <line class="a15926d9-f86a-4c91-8ae7-2379824d769d" x1="601.462432" y1="192.942378" x2="590.788691" y2="225.786131" id="svg_42" stroke="null"/>
    </g>
    <g id="03a5dc8c-5a9a-49c1-aba6-58e11f1a598a" stroke="null">
     <path class="a15926d9-f86a-4c91-8ae7-2379824d769d" d="m590.788691,225.786131a14.44207,14.44207 0 0 1 -13.715184,9.946856" id="svg_43" stroke="null"/>
    </g>
    <g id="8c2827c9-9f07-4523-a34d-2296af60c112" stroke="null">
     <line class="a15926d9-f86a-4c91-8ae7-2379824d769d" x1="577.016121" y1="235.82863" x2="542.450796" y2="235.82863" id="svg_44" stroke="null"/>
    </g>
    <g id="fcc025fc-7aff-4827-8629-965b7a9c343c" stroke="null">
     <line class="a15926d9-f86a-4c91-8ae7-2379824d769d" x1="525.675041" y1="346.028318" x2="519.152199" y2="337.70739" id="svg_45" stroke="null"/>
    </g>
    <g id="dd65c05a-bbdf-4c09-8967-2c777bb798f7" stroke="null">
     <path class="a15926d9-f86a-4c91-8ae7-2379824d769d" d="m519.152199,337.70739a13.389998,13.389998 0 0 1 2.238043,-18.631226a12.127513,12.127513 0 0 1 4.571728,-2.295428" id="svg_46" stroke="null"/>
    </g>
    <g id="5ffa3e52-2f46-446c-9ce3-b9f8efdbc26c" stroke="null">
     <line class="a15926d9-f86a-4c91-8ae7-2379824d769d" x1="525.904584" y1="316.780735" x2="536.080983" y2="313.91145" id="svg_47" stroke="null"/>
    </g>
    <g id="6fdbec62-be65-4532-afa1-ef1f94aa326b" stroke="null">
     <path class="a15926d9-f86a-4c91-8ae7-2379824d769d" d="m543.024653,308.82325a12.29967,12.29967 0 0 1 -6.943671,5.011685" id="svg_48" stroke="null"/>
    </g>
    <g id="201df998-5f9a-4fcc-a090-2fbfd4e457b5" stroke="null">
     <line class="a15926d9-f86a-4c91-8ae7-2379824d769d" x1="543.024653" y1="308.82325" x2="548.916253" y2="300.062366" id="svg_49" stroke="null"/>
    </g>
    <g id="603e7795-9263-45b2-b955-ac5a7c661ce7" stroke="null">
     <path class="a15926d9-f86a-4c91-8ae7-2379824d769d" d="m548.916253,300.062366a13.275227,13.275227 0 0 1 18.344298,-3.653557a13.543027,13.543027 0 0 1 3.653557,3.653557" id="svg_50" stroke="null"/>
    </g>
    <g id="67bd5ac0-9261-4b10-b194-9e30fc7ec546" stroke="null">
     <line class="a15926d9-f86a-4c91-8ae7-2379824d769d" x1="570.914107" y1="300.062366" x2="576.805707" y2="308.82325" id="svg_51" stroke="null"/>
    </g>
    <g id="8b97706a-ea41-4840-ac06-9323260d775f" stroke="null">
     <path class="a15926d9-f86a-4c91-8ae7-2379824d769d" d="m583.749377,313.91145a12.242284,12.242284 0 0 1 -6.943671,-5.030814" id="svg_52" stroke="null"/>
    </g>
    <g id="35dc1b1a-a506-45a4-a568-d20274b1d1bd" stroke="null">
     <line class="a15926d9-f86a-4c91-8ae7-2379824d769d" x1="583.749377" y1="313.91145" x2="593.944905" y2="316.780735" id="svg_53" stroke="null"/>
    </g>
    <g id="94481c89-fcff-4e3a-a0af-0fb0cb9e28c8" stroke="null">
     <path class="a15926d9-f86a-4c91-8ae7-2379824d769d" d="m593.944905,316.780735a13.23697,13.23697 0 0 1 9.105199,16.335798a15.895841,15.895841 0 0 1 -2.295428,4.590857" id="svg_54" stroke="null"/>
    </g>
    <g id="a8ed2b13-fb53-4650-92ab-99c3532e4b74" stroke="null">
     <line class="a15926d9-f86a-4c91-8ae7-2379824d769d" x1="600.678161" y1="337.70739" x2="594.155319" y2="346.028318" id="svg_55" stroke="null"/>
    </g>
    <g id="1fcee03b-f2e6-40d9-b164-72133934c191" stroke="null">
     <path class="a15926d9-f86a-4c91-8ae7-2379824d769d" d="m591.496448,354.119702a12.624856,12.624856 0 0 1 2.658871,-8.167899" id="svg_56" stroke="null"/>
    </g>
    <g id="7a0506ba-817e-4afe-a78c-32c15e94c3b5" stroke="null">
     <line class="a15926d9-f86a-4c91-8ae7-2379824d769d" x1="591.496448" y1="354.119702" x2="591.936405" y2="364.736058" id="svg_57" stroke="null"/>
    </g>
    <g id="aacb2ef4-b3f3-46ee-befb-178aa70274c5" stroke="null">
     <path class="a15926d9-f86a-4c91-8ae7-2379824d769d" d="m591.936405,364.736058a13.389998,13.389998 0 0 1 -12.777884,13.77257a14.097756,14.097756 0 0 1 -5.088199,-0.8034" id="svg_58" stroke="null"/>
    </g>
    <g id="23741545-b194-4a29-a67c-d35c7677a647" stroke="null">
     <line class="a15926d9-f86a-4c91-8ae7-2379824d769d" x1="574.146836" y1="377.647843" x2="564.180851" y2="373.994286" id="svg_59" stroke="null"/>
    </g>
    <g id="95366237-8a67-4394-8a8b-ee37a62a5bf8" stroke="null">
     <path class="a15926d9-f86a-4c91-8ae7-2379824d769d" d="m555.649509,373.994286a12.56747,12.56747 0 0 1 8.607856,0" id="svg_60" stroke="null"/>
    </g>
    <g id="4cbf5fb0-3009-40e8-b0cf-d4b3b66a43ab" stroke="null">
     <line class="a15926d9-f86a-4c91-8ae7-2379824d769d" x1="555.649509" y1="373.994286" x2="545.683524" y2="377.647843" id="svg_61" stroke="null"/>
    </g>
    <g id="409073ec-bb28-487b-8de9-4069124935e7" stroke="null">
     <path class="a15926d9-f86a-4c91-8ae7-2379824d769d" d="m545.683524,377.647843a13.23697,13.23697 0 0 1 -16.98617,-7.900099a13.619541,13.619541 0 0 1 -0.784271,-5.088199" id="svg_62" stroke="null"/>
    </g>
    <g id="90f3f737-de25-4a69-8f8b-d1d49109319d" stroke="null">
     <line class="a15926d9-f86a-4c91-8ae7-2379824d769d" x1="527.913084" y1="364.736058" x2="528.333912" y2="354.119702" id="svg_63" stroke="null"/>
    </g>
    <g id="15b919f9-25b4-4354-b13a-b539550fe8cb" stroke="null">
     <path class="a15926d9-f86a-4c91-8ae7-2379824d769d" d="m525.675041,346.028318a12.337927,12.337927 0 0 1 2.658871,8.167899" id="svg_64" stroke="null"/>
    </g>
    <path class="f262cf48-6c66-47d8-89a5-d77a6efe6931" d="m282.49354,82.532276a1.052071,1.052071 0 0 1 -0.191286,0.650371a1.243357,1.243357 0 0 1 -0.650371,0.459086a6.943671,6.943671 0 0 1 -1.262486,0.286929a16.814012,16.814012 0 0 1 -3.825714,0a6.828899,6.828899 0 0 1 -1.281614,-0.286929a1.243357,1.243357 0 0 1 -0.650371,-0.459086a1.052071,1.052071 0 0 1 -0.191286,-0.650371l0,-58.896865a0.994686,0.994686 0 0 1 0.019129,-0.6695a1.434643,1.434643 0 0 1 0.707757,-0.459086a10.138142,10.138142 0 0 1 1.281614,-0.286929a13.10307,13.10307 0 0 1 1.912857,-0.114771a14.002113,14.002113 0 0 1 1.912857,0.114771a9.066942,9.066942 0 0 1 1.262486,0.286929a1.243357,1.243357 0 0 1 0.650371,0.459086a1.109457,1.109457 0 0 1 0.191286,0.6695l0.114771,58.896865z" id="svg_65" stroke="null"/>
    <g id="af353d3a-b89d-4a14-93f1-eee146ac2213" stroke="null">
     <line class="a15926d9-f86a-4c91-8ae7-2379824d769d" x1="308.69968" y1="235.82863" x2="247.966472" y2="235.82863" id="svg_66" stroke="null"/>
    </g>
    <g id="a05f1da1-6cdd-42ed-b62f-425fda5f1f79" stroke="null">
     <path class="a15926d9-f86a-4c91-8ae7-2379824d769d" d="m248.062115,235.82863a14.748127,14.748127 0 0 1 -14.767255,-14.767255a14.901155,14.901155 0 0 1 1.912857,-7.383628" id="svg_67" stroke="null"/>
    </g>
    <g id="138e1dbd-9e03-4b60-8a07-909930614aa4" stroke="null">
     <line class="a15926d9-f86a-4c91-8ae7-2379824d769d" x1="235.131202" y1="213.677747" x2="265.545627" y2="161.055053" id="svg_68" stroke="null"/>
    </g>
    <g id="d1b7e456-8929-48dc-8e6a-d6f954a0a73c" stroke="null">
     <path class="a15926d9-f86a-4c91-8ae7-2379824d769d" d="m265.545627,161.131567a14.748127,14.748127 0 0 1 25.517511,0" id="svg_69" stroke="null"/>
    </g>
    <g id="5d8c9623-4752-4c3d-bdce-8630331b22c3" stroke="null">
     <line class="a15926d9-f86a-4c91-8ae7-2379824d769d" x1="291.063139" y1="161.055053" x2="321.458435" y2="213.677747" id="svg_70" stroke="null"/>
    </g>
    <g id="7db57e28-7686-4c96-8ada-319940066bd0" stroke="null">
     <path class="a15926d9-f86a-4c91-8ae7-2379824d769d" d="m321.458435,213.677747a14.786384,14.786384 0 0 1 -12.758756,22.150883" id="svg_71" stroke="null"/>
    </g>
    <g id="d3533733-601f-4b3a-9a6a-4f252600f505" stroke="null">
     <path class="a15926d9-f86a-4c91-8ae7-2379824d769d" d="m237.005802,357.142016a70.507906,70.507906 0 0 1 34.986153,-60.656693" id="svg_72" stroke="null"/>
    </g>
    <g id="d5c7f6ac-af13-4309-af74-218671c6e88a" stroke="null">
     <path class="a15926d9-f86a-4c91-8ae7-2379824d769d" d="m271.991955,296.561837a12.548341,12.548341 0 0 1 12.682241,0" id="svg_73" stroke="null"/>
    </g>
    <g id="33a92390-2d50-4f28-ab4c-eda747ec44fa" stroke="null">
     <path class="a15926d9-f86a-4c91-8ae7-2379824d769d" d="m284.616811,296.561837a70.393135,70.393135 0 0 1 34.986153,60.656693" id="svg_74" stroke="null"/>
    </g>
    <g id="73d461fc-44e0-4807-8daf-b308bc22c2aa" stroke="null">
     <path class="a15926d9-f86a-4c91-8ae7-2379824d769d" d="m319.66035,357.142016a12.663113,12.663113 0 0 1 -6.312428,10.96067" id="svg_75" stroke="null"/>
    </g>
    <g id="4e1075fd-69d2-4769-8a89-6a7c963fb739" stroke="null">
     <path class="a15926d9-f86a-4c91-8ae7-2379824d769d" d="m313.290536,368.102687a70.393135,70.393135 0 0 1 -69.972306,0" id="svg_76" stroke="null"/>
    </g>
    <g id="696dc35b-abf3-40d3-b58f-f2db1996e4a0" stroke="null">
     <path class="a15926d9-f86a-4c91-8ae7-2379824d769d" d="m243.31823,368.102687a12.395313,12.395313 0 0 1 -6.312428,-10.96067" id="svg_77" stroke="null"/>
    </g>
    <path class="f262cf48-6c66-47d8-89a5-d77a6efe6931" d="m157.526597,82.436633a1.415514,1.415514 0 0 1 -0.172157,0.688628a1.224228,1.224228 0 0 1 -0.631243,0.497343a6.656742,6.656742 0 0 1 -1.281614,0.306057a15.417627,15.417627 0 0 1 -2.085014,0.114771a21.156198,21.156198 0 0 1 -2.716257,-0.1339a3.251857,3.251857 0 0 1 -1.549414,-0.5356a3.6153,3.6153 0 0 1 -0.860786,-0.841657l-22.59084,-30.682225l0,30.605711a1.147714,1.147714 0 0 1 -0.191286,0.631243a1.224228,1.224228 0 0 1 -0.6695,0.478214a6.350685,6.350685 0 0 1 -1.243357,0.286929a14.193398,14.193398 0 0 1 -1.912857,0.114771a14.078627,14.078627 0 0 1 -1.912857,-0.114771a6.828899,6.828899 0 0 1 -1.281614,-0.286929a1.224228,1.224228 0 0 1 -0.6695,-0.478214a1.300743,1.300743 0 0 1 -0.172157,-0.631243l0,-58.820351a1.243357,1.243357 0 0 1 0.172157,-0.6695a1.300743,1.300743 0 0 1 0.6695,-0.459086a8.799142,8.799142 0 0 1 1.281614,-0.286929a14.078627,14.078627 0 0 1 1.912857,-0.114771a14.193398,14.193398 0 0 1 1.912857,0.114771a8.129642,8.129642 0 0 1 1.243357,0.286929a1.300743,1.300743 0 0 1 0.6695,0.459086a1.109457,1.109457 0 0 1 0.191286,0.6695l0,27.258211l21.730055,-27.258211a3.060571,3.060571 0 0 1 0.6695,-0.726886a2.926671,2.926671 0 0 1 0.918171,-0.439957a9.162585,9.162585 0 0 1 1.339,-0.2678a18.516455,18.516455 0 0 1 2.0085,0a13.734313,13.734313 0 0 1 1.912857,0.114771a5.738571,5.738571 0 0 1 1.224228,0.325186a1.2051,1.2051 0 0 1 0.612114,0.459086a1.2051,1.2051 0 0 1 0.172157,0.631243a2.658871,2.658871 0 0 1 -0.325186,1.224228a10.520713,10.520713 0 0 1 -1.147714,1.702443l-20.276283,24.235897l21.902212,29.113682a12.337927,12.337927 0 0 1 0.975557,1.683314a2.238043,2.238043 0 0 1 0.172157,0.746014l0,0.000002z" id="svg_78" stroke="null"/>
    <g id="6b30fc80-5616-412c-a7bb-2a237a5b4f51" stroke="null">
     <line class="a15926d9-f86a-4c91-8ae7-2379824d769d" x1="98.476703" y1="222.496017" x2="98.476703" y2="167.004038" id="svg_79" stroke="null"/>
    </g>
    <g id="b3aaae70-33cf-4757-ae36-38804dabe37f" stroke="null">
     <line class="a15926d9-f86a-4c91-8ae7-2379824d769d" x1="176.559523" y1="167.004038" x2="176.559523" y2="222.496017" id="svg_80" stroke="null"/>
    </g>
    <g id="bf0e842e-c31d-46d1-ad92-051f9f8b1a5f" stroke="null">
     <path class="a15926d9-f86a-4c91-8ae7-2379824d769d" d="m176.559523,222.496017a11.22847,11.22847 0 0 1 -11.266727,11.324113" id="svg_81" stroke="null"/>
    </g>
    <g id="36baa063-3ad4-497c-a4b5-66fe6e0be258" stroke="null">
     <line class="a15926d9-f86a-4c91-8ae7-2379824d769d" x1="165.216281" y1="233.743616" x2="109.800816" y2="233.743616" id="svg_82" stroke="null"/>
    </g>
    <g id="af302057-627d-4317-a3a1-9a0602b0e3d3" stroke="null">
     <path class="a15926d9-f86a-4c91-8ae7-2379824d769d" d="m109.800816,233.82013a11.209342,11.209342 0 0 1 -11.247599,-11.247599" id="svg_83" stroke="null"/>
    </g>
    <g id="a5acf9cb-4aac-4881-b951-caa76434c99f" stroke="null">
     <path class="a15926d9-f86a-4c91-8ae7-2379824d769d" d="m98.476703,167.004038a11.22847,11.22847 0 0 1 11.247599,-11.266727" id="svg_84" stroke="null"/>
    </g>
    <g id="26b887e5-82e9-4e82-842a-727a1cd69757" stroke="null">
     <line class="a15926d9-f86a-4c91-8ae7-2379824d769d" x1="109.800816" y1="155.73731" x2="165.216281" y2="155.73731" id="svg_85" stroke="null"/>
    </g>
    <g id="4f709c13-6e95-41d0-ae7c-a2f463bac98c" stroke="null">
     <path class="a15926d9-f86a-4c91-8ae7-2379824d769d" d="m165.216281,155.73731a11.247599,11.247599 0 0 1 11.266727,11.266727" id="svg_86" stroke="null"/>
    </g>
    <g id="3d2fd39f-b9d8-4ff8-be2b-a19300f93473" stroke="null">
     <path class="a15926d9-f86a-4c91-8ae7-2379824d769d" d="m178.548894,336.272747a41.04991,41.04991 0 1 0 -40.992524,41.011653a41.069038,41.069038 0 0 0 40.992524,-41.088167l0,0.076514z" id="svg_87" stroke="null"/>
    </g>
   </g>
  </g>
 </g>
</svg>