<svg xmlns="http://www.w3.org/2000/svg" xmlns:xlink="http://www.w3.org/1999/xlink" viewBox="0 0 85.07 85.05"><defs><style>.cls-1{fill:#fff;}.cls-2{fill:#1d1e1c;}</style><symbol id="Nuovo_simbolo_2" data-name="Nuovo simbolo 2" viewBox="0 0 85.07 85.05"><circle id="svg_15" data-name="svg 15" cx="36.65" cy="48.4" r="35.33"/><path d="M36.65,85.05A36.66,36.66,0,1,1,73.31,48.4,36.69,36.69,0,0,1,36.65,85.05Zm0-70.66a34,34,0,1,0,34,34A34,34,0,0,0,36.65,14.39Z"/><circle id="svg_16" data-name="svg 16" class="cls-1" cx="48.42" cy="36.65" r="35.33"/><path class="cls-2" d="M48.42,73.31A36.66,36.66,0,1,1,85.07,36.65,36.7,36.7,0,0,1,48.42,73.31Zm0-70.66a34,34,0,1,0,34,34A34,34,0,0,0,48.42,2.65Z"/></symbol></defs><title>solo logo</title><g id="Livello_2" data-name="Livello 2"><g id="Livello_1-2" data-name="Livello 1"><use width="85.07" height="85.05" xlink:href="#Nuovo_simbolo_2"/></g></g></svg>