<svg xmlns="http://www.w3.org/2000/svg" xmlns:xlink="http://www.w3.org/1999/xlink" viewBox="0 0 89.5 10.72"><defs><style>.cls-1{fill:#1d1e1c;}</style><symbol id="Nuovo_simbolo_3" data-name="Nuovo simbolo 3" viewBox="0 0 89.5 10.72"><path class="cls-1" d="M54.91,10.72h-10l2.44-5.15L49.87,0,52.5,5.57Zm-7.49-1.6h4.95L51,6.25,49.89,3.83,48.77,6.25Z"/><path id="svg_9" data-name="svg 9" class="cls-1" d="M2.41,5.43l4.3,4.78H5.78L2,5.91l-.74.85v3.42H.51V.51h.7V5.73L5.78.54h.9Z"/><polygon points="7.86 10.72 5.55 10.72 1.95 6.69 1.72 6.95 1.72 10.7 0 10.7 0 0 1.72 0 1.72 4.37 5.55 0.03 7.81 0.03 3.1 5.42 7.86 10.72"/><path id="svg_10" data-name="svg 10" d="M14.41,5.36a4.84,4.84,0,1,1,4.84,4.84,4.85,4.85,0,0,1-4.84-4.84Zm.67,0a4.17,4.17,0,1,0,4.17-4.17,4.17,4.17,0,0,0-4.17,4.17Z"/><path class="cls-1" d="M19.25,10.71A5.35,5.35,0,1,1,24.6,5.36,5.4,5.4,0,0,1,19.25,10.71ZM15.59,5.36a3.66,3.66,0,1,0,3.66-3.65A3.66,3.66,0,0,0,15.59,5.36Z"/><path id="svg_11" data-name="svg 11" d="M33.16.53a4.84,4.84,0,0,1,0,9.67H31.22V.53Zm4.17,4.83a4.17,4.17,0,0,0-4.17-4.17H31.91V9.51h1.25a4.16,4.16,0,0,0,4.17-4.15Z"/><path class="cls-1" d="M31.22,10.71H30.7V0h2.47a5.41,5.41,0,0,1,5.27,5.43,5.36,5.36,0,0,1-5.27,5.27ZM32.42,9h.74a3.58,3.58,0,0,0,2.58-1,3.65,3.65,0,0,0-2.58-6.24h-.74Z"/><path id="svg_12" data-name="svg 12" d="M67.77,10.2H62.63V.53h.69v9h4.47v.67Z"/><polygon class="cls-1" points="68.31 10.71 62.11 10.71 62.11 0.01 63.83 0.01 63.83 9.02 68.31 9.02 68.31 10.71"/><path id="svg_13" data-name="svg 13" d="M84.21.55l-3.35,6V10.2h-.69V6.69L76.85.53h.76l2.9,5.34L83.45.53l.76,0Z"/><polygon class="cls-1" points="81.38 10.71 79.66 10.71 79.66 6.82 75.98 0.01 77.92 0.01 80.51 4.8 83.15 0 85.07 0.07 81.38 6.72 81.38 10.71"/><path class="cls-1" d="M89.42,1.82a1.73,1.73,0,0,1-.13.69,1.82,1.82,0,0,1-.37.56,1.76,1.76,0,0,1-.56.37,1.61,1.61,0,0,1-.69.14,1.75,1.75,0,0,1-.7-.13,1.53,1.53,0,0,1-.55-.37,1.75,1.75,0,0,1-.36-.55,1.78,1.78,0,0,1-.13-.7,1.74,1.74,0,0,1,.14-.69,1.76,1.76,0,0,1,.37-.56A1.82,1.82,0,0,1,87,.21a1.73,1.73,0,0,1,.69-.13,1.78,1.78,0,0,1,.7.13,1.69,1.69,0,0,1,.55.36,1.87,1.87,0,0,1,.36.55A2,2,0,0,1,89.42,1.82Zm-.34,0a1.74,1.74,0,0,0-.1-.61,1.47,1.47,0,0,0-.3-.46,1.23,1.23,0,0,0-.44-.3,1.45,1.45,0,0,0-.55-.1,1.38,1.38,0,0,0-1,.42,1.36,1.36,0,0,0-.28.46,1.42,1.42,0,0,0-.11.55,1.64,1.64,0,0,0,.11.6,1.49,1.49,0,0,0,.29.47,1.32,1.32,0,0,0,.44.3,1.47,1.47,0,0,0,.56.1,1.54,1.54,0,0,0,.58-.11,1.36,1.36,0,0,0,.45-.32A1.31,1.31,0,0,0,89,2.4,1.45,1.45,0,0,0,89.08,1.85Zm-.59.86v0l0,0h-.3l-.07,0,0,0s0,0,0,0l-.1-.33a.58.58,0,0,0-.15-.26A.4.4,0,0,0,87.51,2h-.13V2.7a.06.06,0,0,1,0,.06.32.32,0,0,1-.16,0,.35.35,0,0,1-.17,0,.07.07,0,0,1,0-.06V1a.2.2,0,0,1,0-.14A.15.15,0,0,1,87.16.8h.5a1.49,1.49,0,0,1,.33,0,.67.67,0,0,1,.24.11.46.46,0,0,1,.13.18.56.56,0,0,1,0,.23.48.48,0,0,1-.12.35.69.69,0,0,1-.33.17.8.8,0,0,1,.21.13.84.84,0,0,1,.17.27l.12.31A.9.9,0,0,1,88.49,2.71ZM88,1.41a.36.36,0,0,0,0-.11.16.16,0,0,0-.06-.08.17.17,0,0,0-.11-.06.5.5,0,0,0-.18,0h-.23V1.7h.22a.47.47,0,0,0,.3-.08A.3.3,0,0,0,88,1.41Z"/><path d="M87.67,3.65a1.9,1.9,0,0,1-.73-.13,1.63,1.63,0,0,1-.57-.38A1.88,1.88,0,0,1,86,2.56a1.93,1.93,0,0,1-.13-.73A1.89,1.89,0,0,1,86,1.11a1.65,1.65,0,0,1,.39-.58A2,2,0,0,1,87,.14a2,2,0,0,1,1.45,0A1.73,1.73,0,0,1,89,.52a1.77,1.77,0,0,1,.38.58,2.09,2.09,0,0,1,.13.72,1.89,1.89,0,0,1-.14.72,2,2,0,0,1-.39.58,1.8,1.8,0,0,1-1.3.53Zm0-3.5A1.59,1.59,0,0,0,87,.28a1.86,1.86,0,0,0-.54.35,1.62,1.62,0,0,0-.35.54,1.59,1.59,0,0,0-.13.66,1.81,1.81,0,0,0,.12.67,1.51,1.51,0,0,0,.34.53,1.54,1.54,0,0,0,.52.35,1.82,1.82,0,0,0,1.34,0A1.77,1.77,0,0,0,88.86,3a1.7,1.7,0,0,0,.36-.54,1.59,1.59,0,0,0,.13-.66,1.81,1.81,0,0,0-.12-.67,1.72,1.72,0,0,0-.34-.53,2,2,0,0,0-.53-.35A1.81,1.81,0,0,0,87.69.15Zm0,3.2a1.54,1.54,0,0,1-.58-.1,1.4,1.4,0,0,1-.47-.32,1.64,1.64,0,0,1-.31-.49,1.81,1.81,0,0,1-.11-.63,1.58,1.58,0,0,1,.11-.58,1.5,1.5,0,0,1,.3-.48,1.43,1.43,0,0,1,.47-.33,1.63,1.63,0,0,1,1.19,0,1.36,1.36,0,0,1,.77.81,1.61,1.61,0,0,1,.12.63,1.52,1.52,0,0,1-.11.57,1.31,1.31,0,0,1-.3.48,1.43,1.43,0,0,1-.47.33A1.51,1.51,0,0,1,87.67,3.35Zm0-2.9a1.38,1.38,0,0,0-.55.11,1.3,1.3,0,0,0-.43.29,1.73,1.73,0,0,0-.27.43,1.55,1.55,0,0,0-.09.53,1.57,1.57,0,0,0,.1.58,1.33,1.33,0,0,0,.28.44,1.2,1.2,0,0,0,.41.28,1.44,1.44,0,0,0,1.08,0,1.19,1.19,0,0,0,.43-.3,1.34,1.34,0,0,0,.26-.43,1.3,1.3,0,0,0,.1-.52,1.76,1.76,0,0,0-.1-.58,1.33,1.33,0,0,0-.28-.44,1.19,1.19,0,0,0-.42-.28A1.3,1.3,0,0,0,87.69.45Zm.58,2.41h-.12l-.09,0A.18.18,0,0,1,88,2.78a.2.2,0,0,1,0-.08l-.1-.33a.55.55,0,0,0-.13-.22.29.29,0,0,0-.21-.06h-.06V2.7a.14.14,0,0,1-.07.13.42.42,0,0,1-.19,0,.44.44,0,0,1-.2,0,.14.14,0,0,1-.08-.13V1A.29.29,0,0,1,87,.81a.26.26,0,0,1,.19-.08h.5a1.25,1.25,0,0,1,.35,0,.79.79,0,0,1,.26.12.54.54,0,0,1,.16.21.71.71,0,0,1,0,.26.57.57,0,0,1-.14.4.69.69,0,0,1-.2.13l.08.06a1,1,0,0,1,.19.3l.12.32a.4.4,0,0,1,0,.14v.06a.14.14,0,0,1-.08.07h-.21ZM87.3,2h.21a.48.48,0,0,1,.31.09.65.65,0,0,1,.17.29l.1.33v0h.31s0,0,0-.08l-.12-.32a.76.76,0,0,0-.15-.24A.58.58,0,0,0,87.94,2l-.24-.08.24-.06a.62.62,0,0,0,.29-.15.4.4,0,0,0,.1-.3.66.66,0,0,0,0-.21A.53.53,0,0,0,88.18,1a.75.75,0,0,0-.2-.1,1.51,1.51,0,0,0-.32,0h-.5a.1.1,0,0,0-.07,0,.17.17,0,0,0,0,.1V2.7h.25Zm.3-.18h-.3V1.06h.31a.56.56,0,0,1,.2,0,.37.37,0,0,1,.14.07.2.2,0,0,1,.08.12.51.51,0,0,1,0,.13.35.35,0,0,1-.1.26A.47.47,0,0,1,87.6,1.77Zm-.15-.14h.15a.36.36,0,0,0,.25-.06.22.22,0,0,0,.05-.16.19.19,0,0,0,0-.08s0,0,0-.06a.19.19,0,0,0-.09,0l-.16,0h-.16Z"/></symbol></defs><title>scritta kodaly</title><g id="Livello_2" data-name="Livello 2"><g id="Livello_1-2" data-name="Livello 1"><use width="89.5" height="10.72" xlink:href="#Nuovo_simbolo_3"/></g></g></svg>